<svg width="195" height="142" viewBox="0 0 195 142" fill="none" xmlns="http://www.w3.org/2000/svg">
<path d="M86.0368 25.2018C88.4031 25.0498 90.8986 24.9757 93.5195 24.9757C96.2172 24.9757 98.7895 25.0517 101.206 25.2278H101.233C104.033 25.3798 106.654 25.656 109.073 25.9582C109.2 25.9841 109.327 25.9841 109.455 25.9841C110.932 25.9841 112.152 24.9516 112.152 23.6651C112.152 22.5306 111.185 21.5481 109.861 21.372C109.148 21.296 108.41 21.1959 107.673 21.1198C108.97 19.8852 110.065 18.5487 110.982 17.0619H111.009C116.762 17.4902 140.307 19.9093 157.972 39.4184C168.611 51.1899 172.329 63.8419 173.754 70.4468C176.655 70.4969 179.024 70.2207 180.703 69.9167C183.045 69.5126 184.267 69.2864 185.692 68.48C186.43 68.0258 189.18 66.4631 189.891 63.4136C190.069 62.6073 190.629 60.1881 189.077 58.8515C187.779 57.717 185.437 57.7671 184.647 58.7755C183.782 59.834 185.08 61.4968 184.011 62.6573C183.552 63.1615 182.815 63.3636 182.204 63.3135C181.186 63.2375 180.576 62.4812 180.448 62.331C179.252 60.8944 179.786 57.971 181.212 56.2562C183.249 53.8371 187.347 53.4088 190.222 55.0457C194.015 57.1627 194.042 61.8509 194.042 62.5071C194.015 66.439 191.344 69.0361 190.275 70.0427C187.017 73.1941 182.944 73.8244 179.711 74.3527C177.344 74.7309 175.308 74.7309 173.907 74.6549C173.22 78.9649 171.642 85.392 167.722 92.3232C162.86 100.917 156.648 106.262 152.831 109.085C151.279 119.924 149.725 130.761 148.173 141.624H125.489L124.903 114.554C120.983 116.873 111.997 121.535 99.6263 121.737C86.6452 121.939 77.15 117.125 73.2298 114.832C73.2298 123.376 73.2298 131.922 73.2298 140.466L49.8623 141.624L43.7537 113.117C40.2922 112.109 34.513 109.992 28.8125 105.227C21.5844 99.1785 18.3251 92.1452 16.9771 88.6175C12.0386 88.6175 7.09998 88.6175 2.16327 88.6175L0.712402 61.2707L13.2105 60.6905C15.603 55.2218 19.9051 47.3062 27.4403 39.5945C32.5829 34.3261 37.8004 30.6464 41.9995 28.1512L42.535 28.1252C41.5671 12.498 43.4766 1.23073 47.3706 0.400244C50.935 -0.356095 56.6112 7.65961 61.7277 19.7573C63.1523 19.203 64.7305 18.6729 66.4884 18.2446C70.2045 17.2862 73.5649 17.0341 76.2626 17.0601C77.178 18.5468 78.2994 19.9075 79.5968 21.118C78.833 21.194 78.0954 21.2941 77.3821 21.3701C76.0585 21.5462 75.1169 22.5287 75.1169 23.6632C75.1169 25.0739 76.5677 26.1584 78.1965 25.9563C80.6152 25.656 83.2361 25.378 86.0368 25.2018ZM38.7421 55.574C38.7421 53.0029 37.0872 50.9118 35.026 50.9118C32.9892 50.9118 31.3342 53.0047 31.3342 55.574C31.3342 58.1193 32.9892 60.2122 35.026 60.2122C37.0872 60.2122 38.7421 58.1193 38.7421 55.574Z" fill="#141974"/>
</svg>
