<svg width="13" height="19" viewBox="0 0 13 19" fill="none" xmlns="http://www.w3.org/2000/svg">
<path d="M6.97956 18.288C5.87556 18.288 4.87556 18.096 3.97956 17.712C3.08356 17.312 2.36356 16.704 1.81956 15.888C1.27556 15.072 0.987563 14.048 0.955563 12.816H3.97956C3.99556 13.632 4.25956 14.32 4.77156 14.88C5.29956 15.424 6.03556 15.696 6.97956 15.696C7.87556 15.696 8.56356 15.448 9.04356 14.952C9.52356 14.456 9.76356 13.832 9.76356 13.08C9.76356 12.2 9.44356 11.536 8.80356 11.088C8.17956 10.624 7.37156 10.392 6.37956 10.392H5.13156V7.872H6.40356C7.21956 7.872 7.89956 7.68 8.44356 7.296C8.98756 6.912 9.25956 6.344 9.25956 5.592C9.25956 4.968 9.05156 4.472 8.63556 4.104C8.23556 3.72 7.67556 3.528 6.95556 3.528C6.17156 3.528 5.55556 3.76 5.10756 4.224C4.67556 4.688 4.43556 5.256 4.38756 5.928H1.38756C1.45156 4.376 1.98756 3.152 2.99556 2.256C4.01956 1.36 5.33956 0.912 6.95556 0.912C8.10756 0.912 9.07556 1.12 9.85956 1.536C10.6596 1.936 11.2596 2.472 11.6596 3.144C12.0756 3.816 12.2836 4.56 12.2836 5.376C12.2836 6.32 12.0196 7.12 11.4916 7.776C10.9796 8.416 10.3396 8.848 9.57156 9.072C10.5156 9.264 11.2836 9.728 11.8756 10.464C12.4676 11.184 12.7636 12.096 12.7636 13.2C12.7636 14.128 12.5396 14.976 12.0916 15.744C11.6436 16.512 10.9876 17.128 10.1236 17.592C9.27556 18.056 8.22756 18.288 6.97956 18.288Z" fill="#1A1A1A"/>
</svg>
