<svg width="344" height="193" viewBox="0 0 344 193" fill="none" xmlns="http://www.w3.org/2000/svg">
<g clip-path="url(#clip0)">
<path d="M245.54 57.1042H97.459V160.828H245.54V57.1042Z" fill="#FFE8BA"/>
<path d="M245.391 39.0917H98.7178V47.5526H245.391V39.0917Z" fill="#FFE8BA"/>
<path d="M248.894 32.1736H95.2119V39.0916H248.894V32.1736Z" fill="#E4C189"/>
<path d="M146.702 78.2198H107.367V160.826H146.702V78.2198Z" fill="#E4C189"/>
<path d="M143.211 81.8361H111.126V160.828H143.211V81.8361Z" fill="#CBDAEF"/>
<path d="M144.674 121.332H110.752V125.034H144.674V121.332Z" fill="#E4C189"/>
<path d="M240.921 76.522H155.235V144.99H240.921V76.522Z" fill="#E4C189"/>
<path d="M237.524 79.287H158.512V142.211H237.524V79.287Z" fill="#CBDAEF"/>
<path d="M246.484 46.4479H98.0617L90.9355 62.2728C90.9355 67.8342 95.4438 72.344 101.007 72.344C106.568 72.344 111.078 67.8358 111.078 62.2728C111.078 67.8342 115.586 72.344 121.149 72.344C126.71 72.344 131.22 67.8358 131.22 62.2728C131.22 67.8342 135.728 72.344 141.291 72.344C146.853 72.344 151.362 67.8358 151.362 62.2728C151.362 67.8342 155.871 72.344 161.434 72.344C166.995 72.344 171.505 67.8358 171.505 62.2728C171.505 67.8342 176.013 72.344 181.576 72.344C187.139 72.344 191.647 67.8358 191.647 62.2728C191.647 67.8342 196.155 72.344 201.718 72.344C207.281 72.344 211.789 67.8358 211.789 62.2728C211.789 67.8342 216.298 72.344 221.86 72.344C227.422 72.344 231.932 67.8358 231.932 62.2728C231.932 67.8342 236.44 72.344 242.003 72.344C247.564 72.344 252.074 67.8358 252.074 62.2728L246.484 46.4479Z" fill="#141974"/>
<path d="M137.626 100.973L116.043 105.18L117.516 112.739L139.1 108.532L137.626 100.973Z" fill="#141974"/>
<path d="M120.688 110.282C120.253 110.367 119.853 110.346 119.489 110.219C119.128 110.091 118.822 109.878 118.57 109.578C118.322 109.274 118.154 108.9 118.068 108.457C117.981 108.013 117.997 107.606 118.114 107.235C118.234 106.859 118.437 106.544 118.723 106.29C119.013 106.036 119.376 105.866 119.811 105.781C120.242 105.697 120.64 105.719 121.004 105.845C121.369 105.972 121.676 106.188 121.924 106.492C122.172 106.792 122.339 107.164 122.425 107.607C122.512 108.051 122.497 108.46 122.381 108.836C122.264 109.207 122.06 109.52 121.77 109.774C121.48 110.029 121.119 110.198 120.688 110.282ZM120.549 109.567C120.963 109.486 121.266 109.285 121.457 108.964C121.653 108.642 121.704 108.243 121.611 107.766C121.518 107.29 121.321 106.939 121.019 106.714C120.721 106.488 120.365 106.415 119.95 106.496C119.536 106.577 119.231 106.778 119.036 107.1C118.84 107.422 118.789 107.821 118.882 108.298C118.975 108.775 119.172 109.125 119.474 109.351C119.776 109.576 120.135 109.648 120.549 109.567Z" fill="white"/>
<path d="M123.552 109.646L122.704 105.295L124.314 104.981C124.662 104.913 124.961 104.915 125.212 104.987C125.462 105.058 125.663 105.185 125.815 105.366C125.966 105.547 126.067 105.764 126.116 106.017C126.163 106.257 126.152 106.49 126.084 106.714C126.015 106.934 125.879 107.128 125.675 107.297C125.471 107.461 125.19 107.578 124.834 107.648L124.019 107.807L124.348 109.491L123.552 109.646ZM123.893 107.16L124.658 107.011C124.936 106.957 125.123 106.858 125.22 106.714C125.32 106.566 125.349 106.386 125.308 106.175C125.266 105.959 125.171 105.803 125.023 105.707C124.879 105.606 124.668 105.583 124.39 105.637L123.626 105.786L123.893 107.16Z" fill="white"/>
<path d="M127.328 108.91L126.48 104.559L129.321 104.005L129.445 104.645L127.4 105.044L127.633 106.238L129.492 105.875L129.613 106.497L127.754 106.859L127.999 108.115L130.044 107.716L130.169 108.357L127.328 108.91Z" fill="white"/>
<path d="M130.922 108.21L130.074 103.858L130.869 103.703L133.512 106.369L132.914 103.305L133.71 103.15L134.558 107.501L133.762 107.656L131.121 104.996L131.717 108.055L130.922 108.21Z" fill="white"/>
<path d="M134.257 102.307C134.066 102.276 124.221 92.713 124.221 92.713L119.812 105.667" stroke="#141974" stroke-width="0.5" stroke-miterlimit="10"/>
<path d="M124.177 93.6066C124.67 93.6066 125.07 93.2066 125.07 92.7131C125.07 92.2196 124.67 91.8196 124.177 91.8196C123.683 91.8196 123.283 92.2196 123.283 92.7131C123.283 93.2066 123.683 93.6066 124.177 93.6066Z" fill="#4D4D4D"/>
<g clip-path="url(#clip1)">
<path opacity="0.59" d="M232.97 149.839L246.154 144.501L195.687 71.8921L182.503 77.2307L232.97 149.839Z" fill="#DFE9F3"/>
<path opacity="0.59" d="M249.783 144.753L254.558 141.97L205.821 70.7849L201.046 73.5687L249.783 144.753Z" fill="#DFE9F3"/>
<path opacity="0.59" d="M249.699 119.815L251.175 118.961L220.443 69.4628L218.967 70.3175L249.699 119.815Z" fill="#DFE9F3"/>
<path opacity="0.59" d="M251.022 116.376L251.756 115.945L222.109 65.829L221.373 66.2618L251.022 116.376Z" fill="#DFE9F3"/>
</g>
</g>
<defs>
<clipPath id="clip0">
<rect width="169" height="169" fill="white" transform="translate(87 12)"/>
</clipPath>
<clipPath id="clip1">
<rect width="55.1658" height="63.0466" fill="white" transform="translate(182.445 79.4248)"/>
</clipPath>
</defs>
</svg>
