<svg width="344" height="193" viewBox="0 0 344 193" fill="none" xmlns="http://www.w3.org/2000/svg">
<path d="M162.474 60.4747C164.358 60.3525 166.345 60.2929 168.432 60.2929C170.58 60.2929 172.629 60.354 174.553 60.4956H174.574C176.804 60.6179 178.891 60.84 180.817 61.083C180.919 61.1038 181.02 61.1038 181.121 61.1038C182.298 61.1038 183.27 60.2735 183.27 59.2389C183.27 58.3266 182.499 57.5365 181.445 57.3949C180.877 57.3337 180.29 57.2533 179.702 57.1921C180.735 56.1993 181.607 55.1245 182.338 53.9289H182.359C186.94 54.2733 205.689 56.2187 219.755 71.9072C228.227 81.3734 231.188 91.5477 232.322 96.8593C234.633 96.8995 236.519 96.6774 237.856 96.4329C239.721 96.1079 240.694 95.9261 241.829 95.2776C242.416 94.9124 244.606 93.6557 245.173 91.2034C245.314 90.5549 245.76 88.6095 244.524 87.5347C243.491 86.6223 241.626 86.6626 240.997 87.4736C240.308 88.3248 241.341 89.662 240.49 90.5952C240.125 91.0007 239.538 91.1631 239.052 91.1229C238.241 91.0618 237.755 90.4535 237.653 90.3328C236.701 89.1775 237.126 86.8266 238.262 85.4476C239.883 83.5022 243.147 83.1579 245.436 84.4742C248.457 86.1766 248.478 89.9467 248.478 90.4744C248.457 93.6363 246.329 95.7248 245.478 96.5343C242.884 99.0685 239.64 99.5754 237.066 100C235.182 100.304 233.56 100.304 232.445 100.243C231.898 103.709 230.641 108.878 227.519 114.451C223.648 121.363 218.702 125.66 215.662 127.931C214.426 136.647 213.189 145.362 211.953 154.098H193.89L193.423 132.328C190.301 134.193 183.146 137.943 173.295 138.105C162.958 138.268 155.397 134.396 152.276 132.552C152.276 139.423 152.276 146.295 152.276 153.166L133.668 154.098L128.804 131.173C126.048 130.362 121.446 128.66 116.906 124.829C111.151 119.964 108.555 114.308 107.482 111.472C103.549 111.472 99.6167 111.472 95.6856 111.472L94.5303 89.4801L104.482 89.0135C106.388 84.6158 109.813 78.2503 115.814 72.0489C119.909 67.8122 124.063 64.853 127.407 62.8465L127.833 62.8256C127.063 50.2587 128.583 41.198 131.684 40.5301C134.522 39.9219 139.042 46.3679 143.116 56.0964C144.251 55.6507 145.508 55.2244 146.907 54.88C149.867 54.1093 152.542 53.9065 154.691 53.9274C155.42 55.123 156.313 56.2172 157.346 57.1906C156.737 57.2518 156.15 57.3323 155.582 57.3934C154.528 57.535 153.778 58.3251 153.778 59.2374C153.778 60.3719 154.934 61.244 156.231 61.0815C158.157 60.84 160.244 60.6164 162.474 60.4747ZM124.813 84.899C124.813 82.8314 123.495 81.1498 121.854 81.1498C120.232 81.1498 118.914 82.8329 118.914 84.899C118.914 86.9458 120.232 88.6289 121.854 88.6289C123.495 88.6289 124.813 86.9458 124.813 84.899Z" fill="#141974"/>
<path d="M184.77 45.3944C184.77 48.516 183.897 51.4542 182.358 53.9274H182.337C181.608 55.1229 180.736 56.1978 179.701 57.1906C178.221 58.5889 176.499 59.704 174.573 60.4941H174.552C172.626 60.3525 170.579 60.2913 168.431 60.2913C166.344 60.2913 164.357 60.3525 162.473 60.4732C160.546 59.7234 158.825 58.5889 157.344 57.1891C156.311 56.2157 155.418 55.1215 154.689 53.9259C153.149 51.4527 152.277 48.5145 152.277 45.3929C152.277 36.4141 159.534 29.1364 168.513 29.1364C177.493 29.1378 184.77 36.4156 184.77 45.3944Z" fill="#FFBF42"/>
<path d="M181.445 57.3933C182.499 57.5349 183.27 58.325 183.27 59.2373C183.27 60.2704 182.296 61.1023 181.122 61.1023C181.02 61.1023 180.919 61.1023 180.817 61.0814C178.891 60.8384 176.804 60.6148 174.574 60.494C176.5 59.7039 178.222 58.5889 179.702 57.1906C180.29 57.2517 180.877 57.3322 181.445 57.3933Z" fill="white"/>
<path d="M162.474 60.4748C160.244 60.6164 158.157 60.84 156.231 61.083C154.934 61.2455 153.778 60.3734 153.778 59.2389C153.778 58.3266 154.528 57.5365 155.582 57.3949C156.15 57.3338 156.737 57.2533 157.346 57.1921C158.824 58.589 160.548 59.7249 162.474 60.4748Z" fill="white"/>
<path d="M121.854 81.1498C123.495 81.1498 124.813 82.8328 124.813 84.899C124.813 86.9458 123.495 88.6289 121.854 88.6289C120.232 88.6289 118.914 86.9458 118.914 84.899C118.914 82.8313 120.232 81.1498 121.854 81.1498Z" fill="#FFBF42"/>
</svg>
