<svg width="344" height="193" viewBox="0 0 344 193" fill="none" xmlns="http://www.w3.org/2000/svg">
<path d="M148.331 52.0074L78.3945 42.8387L65.5092 141.732L135.445 150.901L148.331 52.0074Z" fill="#E4C189"/>
<path d="M85.9393 67.7299L134.654 74.1169M84.2851 80.4343L132.997 86.8214M82.6285 93.1387L131.341 99.5258M80.9719 105.843L129.687 112.23M79.3177 118.548L128.03 124.935M77.6611 131.252L126.373 137.639" stroke="#1A1A1A" stroke-miterlimit="10"/>
<path d="M127.686 44.8822H57.1572V144.613H127.686V44.8822Z" fill="#FFE8BA"/>
<path d="M67.8555 68.5839H116.985M67.8555 81.3965H116.985M67.8555 94.2092H116.985M67.8555 107.022H116.985M67.8555 119.834H116.985M67.8555 132.647H116.985" stroke="#1A1A1A" stroke-miterlimit="10"/>
<path d="M78.8047 57.3446V51.2527H80.1234L82.0582 55.1167L83.9669 51.2527H85.2856V57.3446H84.1751V53.1412L82.4833 56.4743H81.607L79.9152 53.1412V57.3446H78.8047Z" fill="#1A1A1A"/>
<path d="M86.4639 57.3446V51.2527H90.4289V52.1491H87.5745V53.82H90.1686V54.6903H87.5745V56.4482H90.4289V57.3446H86.4639Z" fill="#1A1A1A"/>
<path d="M91.4797 57.3446V51.2527H92.5903L95.4447 55.5431V51.2527H96.5552V57.3446H95.4447L92.5903 53.0629V57.3446H91.4797Z" fill="#1A1A1A"/>
<path d="M100.075 57.449C99.6297 57.449 99.2277 57.362 98.8691 57.188C98.5105 57.0081 98.2242 56.7383 98.0102 56.3786C97.8019 56.0189 97.6978 55.5635 97.6978 55.0123V51.2527H98.8084V55.021C98.8084 55.4967 98.9211 55.8506 99.1467 56.0827C99.3781 56.3148 99.6962 56.4308 100.101 56.4308C100.5 56.4308 100.815 56.3148 101.047 56.0827C101.278 55.8506 101.394 55.4967 101.394 55.021V51.2527H102.504V55.0123C102.504 55.5635 102.394 56.0189 102.175 56.3786C101.955 56.7383 101.66 57.0081 101.29 57.188C100.925 57.362 100.52 57.449 100.075 57.449Z" fill="#1A1A1A"/>
<path d="M148.674 98.3667C149.499 98.3667 150.168 97.696 150.168 96.8685C150.168 96.0411 149.499 95.3704 148.674 95.3704C147.849 95.3704 147.181 96.0411 147.181 96.8685C147.181 97.696 147.849 98.3667 148.674 98.3667Z" fill="#141974"/>
<path d="M155.103 98.3667C155.928 98.3667 156.597 97.696 156.597 96.8685C156.597 96.0411 155.928 95.3704 155.103 95.3704C154.278 95.3704 153.609 96.0411 153.609 96.8685C153.609 97.696 154.278 98.3667 155.103 98.3667Z" fill="#141974"/>
<path d="M161.528 98.3667C162.353 98.3667 163.021 97.696 163.021 96.8685C163.021 96.0411 162.353 95.3704 161.528 95.3704C160.703 95.3704 160.034 96.0411 160.034 96.8685C160.034 97.696 160.703 98.3667 161.528 98.3667Z" fill="#141974"/>
<path d="M282.267 130.502H162.538C160.011 130.502 157.961 128.446 157.961 125.911V125.3H286.844V125.911C286.842 128.448 284.794 130.502 282.267 130.502Z" fill="#B3B3B3"/>
<path d="M271.597 55.7758H173.208C169.984 55.7758 167.368 58.397 167.368 61.6338V125.303H277.434V61.6314C277.434 58.397 274.821 55.7758 271.597 55.7758Z" fill="#B3B3B3"/>
<path d="M270.566 123.237H174.237C172.88 123.237 171.779 122.133 171.779 120.772V62.8216C171.779 61.4605 172.88 60.3567 174.237 60.3567H270.566C271.923 60.3567 273.023 61.4605 273.023 62.8216V120.774C273.023 122.133 271.923 123.237 270.566 123.237Z" fill="#141974"/>
<path d="M261.319 65.6642H224.754V117.369H261.319V65.6642Z" fill="#E4C189"/>
<path d="M230.302 77.9525H255.772M230.302 84.5945H255.772M230.302 91.2365H255.772M230.302 97.8809H255.772M230.302 104.523H255.772M230.302 111.165H255.772" stroke="#1A1A1A" stroke-miterlimit="10"/>
<path d="M220.921 65.6642H184.356V117.369H220.921V65.6642Z" fill="#FFE8BA"/>
<path d="M235.976 71.9671V68.8088H236.66L237.663 70.8121L238.652 68.8088H239.336V71.9671H238.76V69.7879L237.883 71.5159H237.429L236.552 69.7879V71.9671H235.976Z" fill="#1A1A1A"/>
<path d="M239.947 71.9671V68.8088H242.002V69.2735H240.522V70.1398H241.867V70.591H240.522V71.5024H242.002V71.9671H239.947Z" fill="#1A1A1A"/>
<path d="M242.547 71.9671V68.8088H243.123L244.603 71.0331V68.8088H245.178V71.9671H244.603L243.123 69.7473V71.9671H242.547Z" fill="#1A1A1A"/>
<path d="M247.003 72.0212C246.772 72.0212 246.564 71.9761 246.378 71.8859C246.192 71.7926 246.044 71.6528 245.933 71.4663C245.825 71.2798 245.771 71.0437 245.771 70.7579V68.8088H246.347V70.7624C246.347 71.0091 246.405 71.1926 246.522 71.3129C246.642 71.4332 246.807 71.4934 247.017 71.4934C247.224 71.4934 247.387 71.4332 247.507 71.3129C247.627 71.1926 247.687 71.0091 247.687 70.7624V68.8088H248.263V70.7579C248.263 71.0437 248.206 71.2798 248.092 71.4663C247.978 71.6528 247.825 71.7926 247.633 71.8859C247.444 71.9761 247.234 72.0212 247.003 72.0212Z" fill="#1A1A1A"/>
<path d="M195.579 71.9659V68.8076H196.263L197.266 70.8109L198.255 68.8076H198.939V71.9659H198.363V69.7867L197.486 71.5147H197.032L196.155 69.7867V71.9659H195.579Z" fill="#1A1A1A"/>
<path d="M199.55 71.9659V68.8076H201.606V69.2723H200.126V70.1386H201.471V70.5898H200.126V71.5012H201.606V71.9659H199.55Z" fill="#1A1A1A"/>
<path d="M202.15 71.9659V68.8076H202.726L204.206 71.032V68.8076H204.782V71.9659H204.206L202.726 69.7461V71.9659H202.15Z" fill="#1A1A1A"/>
<path d="M206.607 72.0201C206.376 72.0201 206.167 71.975 205.981 71.8847C205.795 71.7915 205.647 71.6516 205.536 71.4651C205.428 71.2786 205.374 71.0425 205.374 70.7567V68.8076H205.95V70.7613C205.95 71.0079 206.008 71.1914 206.125 71.3117C206.245 71.432 206.41 71.4922 206.62 71.4922C206.827 71.4922 206.99 71.432 207.11 71.3117C207.23 71.1914 207.29 71.0079 207.29 70.7613V68.8076H207.866V70.7567C207.866 71.0425 207.809 71.2786 207.695 71.4651C207.581 71.6516 207.428 71.7915 207.236 71.8847C207.047 71.975 206.837 72.0201 206.607 72.0201Z" fill="#1A1A1A"/>
<path d="M189.904 77.9525H215.374M189.904 84.5945H215.374M189.904 91.2365H215.374M189.904 97.8809H215.374M189.904 104.523H215.374M189.904 111.165H215.374" stroke="#1A1A1A" stroke-miterlimit="10"/>
</svg>
