<svg width="24" height="17" viewBox="0 0 24 17" fill="none" xmlns="http://www.w3.org/2000/svg">
<path d="M23.4986 2.62335C23.2227 1.59073 22.4093 0.777584 21.3766 0.501589C19.505 -2.71303e-07 12 0 12 0C12 0 4.49501 -2.71303e-07 2.62335 0.501589C1.59073 0.777584 0.777395 1.59073 0.5014 2.62335C-1.35652e-07 4.49501 0 8.40014 0 8.40014C0 8.40014 -1.35652e-07 12.3052 0.5014 14.1767C0.777395 15.2093 1.59073 16.0226 2.62335 16.2986C4.49501 16.8002 12 16.8002 12 16.8002C12 16.8002 19.505 16.8002 21.3766 16.2986C22.4093 16.0226 23.2227 15.2093 23.4986 14.1767C24 12.3052 24 8.40014 24 8.40014C24 8.40014 24 4.49501 23.4986 2.62335ZM9.59999 12.0002V4.80002L15.8353 8.40009L9.59999 12.0002Z" fill="white"/>
</svg>
